<svg width="20" height="20" viewBox="0 0 20 20" fill="none" xmlns="http://www.w3.org/2000/svg">
<path d="M14.0974 11.2239L9.58344 15.9746C9.38042 16.2025 9.26959 16.5045 9.27441 16.8168C9.27923 17.1291 9.39932 17.4272 9.60926 17.648C9.8192 17.8688 10.1025 17.995 10.3993 17.9999C10.6961 18.0047 10.983 17.8879 11.1993 17.674L17.664 10.8715C17.7705 10.7601 17.855 10.6276 17.9126 10.4817C17.9703 10.3357 18 10.1792 18 10.0212C18 9.86315 17.9703 9.70667 17.9126 9.56074C17.855 9.41481 17.7705 9.28232 17.664 9.17089L11.1993 2.36717C11.0939 2.2523 10.9678 2.16068 10.8284 2.09764C10.689 2.03461 10.539 2.00143 10.3873 2.00005C10.2355 1.99866 10.0851 2.02909 9.94461 2.08956C9.80417 2.15003 9.67657 2.23934 9.56927 2.35226C9.46198 2.46519 9.37712 2.59947 9.31966 2.74728C9.2622 2.89509 9.23329 3.05346 9.23461 3.21316C9.23593 3.37285 9.26745 3.53067 9.32734 3.67741C9.38723 3.82414 9.47429 3.95685 9.58344 4.0678L14.0974 8.81849H3.14277C2.83969 8.81849 2.54902 8.94521 2.33471 9.17076C2.1204 9.39631 2 9.70222 2 10.0212C2 10.3402 2.1204 10.6461 2.33471 10.8716C2.54902 11.0972 2.83969 11.2239 3.14277 11.2239H14.0974Z" fill="white"/>
</svg>
