<svg width="89" height="89" viewBox="0 0 89 89" fill="none" xmlns="http://www.w3.org/2000/svg">
<path d="M8.74828 45.4485C9.12481 60.432 12.0202 80.7758 45.3937 79.9379C78.7664 79.1003 80.6381 58.6361 80.2616 43.6527L80.258 43.5265C79.8815 28.5431 76.9737 7.71678 43.601 8.55444C10.2284 9.39284 8.36896 30.3388 8.74475 45.3223" fill="url(#paint0_radial_896_21226)"/>
<path opacity="0.71" d="M15.1247 39.4456C15.4321 51.6951 17.7996 68.3269 45.0828 67.6412C72.3661 66.9563 73.8958 50.2269 73.5884 37.9773L73.586 37.8744C73.2786 25.6248 70.9012 8.59852 43.6181 9.28422C16.3348 9.96919 14.8149 27.0931 15.1223 39.3426" fill="url(#paint1_linear_896_21226)" style="mix-blend-mode:screen"/>
<g style="mix-blend-mode:multiply" opacity="0.24">
<path d="M76.3722 23.5948C77.2078 27.3603 77.5388 31.409 77.6425 35.5368L77.646 35.663C78.0763 52.7895 74.4339 68.7397 45.1293 69.4761C15.8245 70.2117 11.3873 54.4647 10.957 37.3383L10.9535 37.2121C10.8495 33.0835 10.9769 29.023 11.6226 25.2204C8.82278 31.6857 8.58529 39.0304 8.74306 45.324L8.7466 45.4502C9.12313 60.4336 12.0185 80.7774 45.392 79.9396C78.7646 79.1012 80.6364 58.6377 80.2599 43.6543L80.2564 43.5281C80.098 37.2355 79.4928 29.9122 76.3717 23.5957L76.3722 23.5948Z" fill="#DB6919"/>
</g>
<g style="mix-blend-mode:multiply" opacity="0.32">
<path d="M29.3316 50.4925C29.4139 53.7808 26.0881 56.532 21.9025 56.6371C17.7168 56.7421 14.2573 54.1618 14.174 50.8729C14.0917 47.5846 17.4175 44.8333 21.603 44.7276C25.7886 44.6226 29.2483 47.2036 29.3314 50.4917L29.3316 50.4925Z" fill="#DD4C20"/>
<path d="M74.8481 49.3497C74.7656 46.0612 71.3055 43.4806 67.1198 43.5857C62.9341 43.6908 59.6078 46.4418 59.6904 49.7303C59.7729 53.0187 63.233 55.5993 67.4187 55.4942C71.6044 55.3891 74.9307 52.6381 74.8481 49.3497Z" fill="#DD4C20"/>
</g>
<path d="M38.5977 47.9931C42.0712 50.7472 47.4202 50.8044 50.9517 48.1253" stroke="#35312F" stroke-width="4.84" stroke-linecap="round" stroke-linejoin="round"/>
<path d="M29.9233 23.0763C16.9649 23.4014 12.9557 25.8594 12.9557 25.8594C12.9557 25.8594 5.37356 51.7908 30.5472 47.9136C43.3583 45.9405 42.6538 35.1834 42.6538 35.1834C42.6538 35.1834 42.8815 22.7505 29.9233 23.0763Z" fill="#35312F"/>
<path d="M21.7926 34.5709C21.1283 36.2953 18.8216 41.9053 17.8373 41.5262C16.8531 41.1472 18.9588 36.8053 19.6231 35.0808C20.2874 33.3564 23.0453 26.5753 24.0296 26.9544C25.0139 27.3335 22.4569 32.8464 21.7926 34.5709Z" fill="#4D4949"/>
<path d="M58.353 22.3623C71.3114 22.0372 75.4386 24.2902 75.4386 24.2902C75.4386 24.2902 84.3129 49.8086 58.9762 47.1998C46.0819 45.8722 46.2459 35.0934 46.2459 35.0934C46.2459 35.0934 45.3941 22.6883 58.3525 22.3632L58.353 22.3623Z" fill="#35312F"/>
<path d="M54.0635 32.9969C53.2868 34.6735 50.8625 40.2339 51.8198 40.6771C52.777 41.1203 54.4298 36.5872 55.2063 34.9098C55.9831 33.2332 58.9349 26.5335 57.9777 26.0903C57.0204 25.6472 54.8401 31.3195 54.0635 32.9969Z" fill="#4D4949"/>
<path d="M11.6562 25.2431L75.4204 23.6419" stroke="#35312F" stroke-width="4.84" stroke-linecap="round" stroke-linejoin="round"/>
<defs>
<radialGradient id="paint0_radial_896_21226" cx="0" cy="0" r="1" gradientTransform="matrix(56.4054 -1.41436 1.41396 56.4047 43.3465 32.1675)" gradientUnits="userSpaceOnUse">
<stop offset="0.011" stop-color="#F0CB40"/>
<stop offset="0.327" stop-color="#EFC83F"/>
<stop offset="0.493" stop-color="#EEC03D"/>
<stop offset="0.624" stop-color="#ECB33A"/>
<stop offset="0.736" stop-color="#E9A035"/>
<stop offset="0.837" stop-color="#E5872E"/>
<stop offset="0.928" stop-color="#E16927"/>
<stop offset="1" stop-color="#DD4C20"/>
</radialGradient>
<linearGradient id="paint1_linear_896_21226" x1="42.8296" y1="9.1461" x2="44.5211" y2="42.036" gradientUnits="userSpaceOnUse">
<stop stop-color="#E3A227"/>
<stop offset="0.271" stop-color="#E2A126" stop-opacity="0.99"/>
<stop offset="0.413" stop-color="#E29F26" stop-opacity="0.955"/>
<stop offset="0.525" stop-color="#E29C25" stop-opacity="0.896"/>
<stop offset="0.622" stop-color="#E19724" stop-opacity="0.812"/>
<stop offset="0.708" stop-color="#E09122" stop-opacity="0.702"/>
<stop offset="0.788" stop-color="#DF8920" stop-opacity="0.568"/>
<stop offset="0.862" stop-color="#DE801E" stop-opacity="0.407"/>
<stop offset="0.931" stop-color="#DC751C" stop-opacity="0.223"/>
<stop offset="0.995" stop-color="#DB6A19" stop-opacity="0.019"/>
<stop offset="1" stop-color="#DB6919" stop-opacity="0"/>
</linearGradient>
</defs>
</svg>
