<svg width="45" height="45" viewBox="0 0 45 45" fill="none" xmlns="http://www.w3.org/2000/svg">
<path d="M33.75 11.25C33.75 5.04562 28.7044 0 22.5 0C16.2956 0 11.25 5.04562 11.25 11.25C11.25 16.815 15.3112 21.4481 20.625 22.3425V43.125C20.625 44.16 21.465 45 22.5 45C23.535 45 24.375 44.16 24.375 43.125V22.3425C29.6888 21.4481 33.75 16.815 33.75 11.25ZM22.5 18.75C18.3637 18.75 15 15.3862 15 11.25C15 7.11375 18.3637 3.75 22.5 3.75C26.6362 3.75 30 7.11375 30 11.25C30 15.3862 26.6362 18.75 22.5 18.75Z" fill="#21377B"/>
<path d="M22.5 18.75C18.3637 18.75 15 15.3862 15 11.25C15 7.11375 18.3637 3.75 22.5 3.75C26.6362 3.75 30 7.11375 30 11.25C30 15.3862 26.6362 18.75 22.5 18.75Z" fill="#21377B"/>
</svg>
