<svg width="9" height="14" viewBox="0 0 9 14" fill="none" xmlns="http://www.w3.org/2000/svg">
<path d="M1.07733 13.3333C0.778667 13.3333 0.524445 13.2284 0.314667 13.0187C0.104889 12.8089 0 12.5549 0 12.2567V1.07667C0 0.77 0.102889 0.514 0.308667 0.308667C0.514444 0.103333 0.770667 0.000444444 1.07733 0H6.97467C7.27244 0 7.52644 0.104889 7.73667 0.314667C7.94644 0.524444 8.05133 0.778667 8.05133 1.07733V3.22C8.21711 3.23778 8.36111 3.30667 8.48333 3.42667C8.60556 3.54622 8.66667 3.69022 8.66667 3.85867V5.038C8.66667 5.20644 8.60556 5.35044 8.48333 5.47C8.36111 5.58956 8.21711 5.65844 8.05133 5.67667V12.256C8.05133 12.5538 7.94644 12.8078 7.73667 13.018C7.52689 13.2278 7.27289 13.3327 6.97467 13.3327L1.07733 13.3333ZM1.07733 12.6667H6.97467C7.09422 12.6667 7.19244 12.6282 7.26933 12.5513C7.34622 12.4744 7.38467 12.3762 7.38467 12.2567V1.07667C7.38467 0.957111 7.34622 0.858889 7.26933 0.782C7.19244 0.705111 7.09422 0.666667 6.97467 0.666667H1.07733C0.957333 0.666667 0.858889 0.705111 0.782 0.782C0.705111 0.858889 0.666667 0.957333 0.666667 1.07733V12.2567C0.666667 12.3762 0.705111 12.4744 0.782 12.5513C0.858889 12.6282 0.957333 12.6667 1.07733 12.6667ZM4.392 2.72467C4.48978 2.62689 4.53867 2.50489 4.53867 2.35867C4.53867 2.21244 4.48978 2.09044 4.392 1.99267C4.29422 1.89489 4.172 1.846 4.02533 1.846C3.87867 1.846 3.75689 1.89489 3.66 1.99267C3.56311 2.09044 3.51422 2.21267 3.51333 2.35933C3.51244 2.506 3.56133 2.62778 3.66 2.72467C3.75867 2.82156 3.88067 2.87044 4.026 2.87133C4.17133 2.87222 4.29333 2.82333 4.392 2.72467Z" fill="black"/>
</svg>
