<svg width="30" height="40" viewBox="0 0 30 40" fill="none" xmlns="http://www.w3.org/2000/svg">
<path d="M29.6296 14.8148C29.6296 22.9968 22.9968 40 14.8148 40C6.63282 40 0 22.9968 0 14.8148C0 6.63282 6.63282 0 14.8148 0C22.9968 0 29.6296 6.63282 29.6296 14.8148Z" fill="#21377B"/>
<g clip-path="url(#clip0_896_18270)">
<path d="M12.555 19.0425L12.015 18.6375L12.99 15.5775L10.5 14.19V13.5H13.7625L14.6475 10.125H15.375L16.26 13.5H19.5075V14.19L17.0325 15.6225L18.03 18.645L17.4675 19.035L15.0225 17.145L12.57 19.0425H12.555ZM24 15C24 10.035 19.965 6 15 6C10.035 6 6 10.035 6 15C6 19.965 10.035 24 15 24C19.965 24 24 19.965 24 15ZM22.5 15C22.5 19.1325 19.1325 22.5 15 22.5C10.8675 22.5 7.5 19.1325 7.5 15C7.5 10.8675 10.8675 7.5 15 7.5C19.1325 7.5 22.5 10.8675 22.5 15Z" fill="white"/>
</g>
<defs>
<clipPath id="clip0_896_18270">
<rect width="18" height="18" fill="white" transform="translate(6 6)"/>
</clipPath>
</defs>
</svg>
