<svg width="16" height="16" viewBox="0 0 16 16" fill="none" xmlns="http://www.w3.org/2000/svg">
<path d="M3.90261 9.22391L8.41656 13.9746C8.61958 14.2025 8.73041 14.5045 8.72559 14.8168C8.72077 15.1291 8.60068 15.4272 8.39074 15.648C8.1808 15.8688 7.89747 15.995 7.60071 15.9999C7.30395 16.0047 7.01704 15.8879 6.80068 15.674L0.336015 8.87151C0.229526 8.76008 0.145018 8.62759 0.0873524 8.48166C0.0296865 8.33573 0 8.17924 0 8.0212C0 7.86315 0.0296865 7.70667 0.0873524 7.56074C0.145018 7.41481 0.229526 7.28232 0.336015 7.17089L6.80068 0.367172C6.9061 0.252302 7.0322 0.160677 7.17162 0.0976439C7.31104 0.0346113 7.461 0.00143311 7.61273 4.54103e-05C7.76447 -0.00134229 7.91495 0.0290883 8.05539 0.0895614C8.19583 0.150035 8.32343 0.239339 8.43073 0.352265C8.53802 0.46519 8.62288 0.599475 8.68034 0.747283C8.7378 0.895091 8.76671 1.05346 8.76539 1.21316C8.76407 1.37285 8.73255 1.53067 8.67266 1.67741C8.61277 1.82414 8.52571 1.95685 8.41656 2.0678L3.90261 6.81849H14.8572C15.1603 6.81849 15.451 6.94521 15.6653 7.17076C15.8796 7.39631 16 7.70222 16 8.0212C16 8.34018 15.8796 8.64609 15.6653 8.87164C15.451 9.09719 15.1603 9.22391 14.8572 9.22391H3.90261Z" fill="black"/>
</svg>
